<!DOCTYPE svg PUBLIC "-//W3C//DTD SVG 1.1//EN" "http://www.w3.org/Graphics/SVG/1.1/DTD/svg11.dtd">

<!-- Uploaded to: SVG Repo, www.svgrepo.com, Transformed by: SVG Repo Mixer Tools -->
<svg fill="#3dc4d3" height="136px" width="136px" version="1.1" id="Capa_1" xmlns="http://www.w3.org/2000/svg" xmlns:xlink="http://www.w3.org/1999/xlink" viewBox="-142.1 -142.1 774.20 774.20" xml:space="preserve" stroke="#4E929A" stroke-width="0.0049" transform="matrix(1, 0, 0, 1, 0, 0)rotate(0)">

<g id="SVGRepo_bgCarrier" stroke-width="0" transform="translate(0,0), scale(1)">

<path transform="translate(-142.1, -142.1), scale(48.3875)" fill="#2F2C38" d="M9.166.33a2.25 2.25 0 00-2.332 0l-5.25 3.182A2.25 2.25 0 00.5 5.436v5.128a2.25 2.25 0 001.084 1.924l5.25 3.182a2.25 2.25 0 002.332 0l5.25-3.182a2.25 2.25 0 001.084-1.924V5.436a2.25 2.25 0 00-1.084-1.924L9.166.33z" strokewidth="0"/>

</g>

<g id="SVGRepo_tracerCarrier" stroke-linecap="round" stroke-linejoin="round" stroke="#CCCCCC" stroke-width="3.9200000000000004"/>

<g id="SVGRepo_iconCarrier"> <g> <path d="M467.031,43.707H22.969C10.336,43.707,0,54.043,0,66.676v273.073c0,12.633,10.336,22.969,22.969,22.969h183.75v52.951 h-69.863v30.625h216.289v-30.625h-69.863v-52.951h183.75c12.633,0,22.969-10.336,22.969-22.969V66.676 C490,54.043,479.664,43.707,467.031,43.707z M459.375,332.092H30.625V74.332h428.75V332.092z"/> <polygon points="203.967,233.686 128.362,203.704 203.967,174.799 203.967,144.069 95.584,190.979 95.584,217.073 203.967,264.199 "/> <polygon points="275.894,121.422 253.135,121.422 213.986,284.902 236.312,284.902 "/> <polygon points="394.417,191.195 285.928,144.286 285.928,174.589 361.638,204.026 285.928,233.791 285.928,264.311 394.417,217.073 "/> </g> </g>

</svg>